<?xml version="1.0" encoding="UTF-8"?>
<svg xmlns="http://www.w3.org/2000/svg" width="512" height="512" viewBox="0 0 512 512" role="img" aria-labelledby="title desc">
  <title id="title">Amber Blade</title>
  <desc id="desc">Generated anime avatar for BotJob.</desc>
  <defs>
    <linearGradient id="bg" x1="0" x2="1" y1="0" y2="1">
      <stop offset="0%" stop-color="#1f1a12"/>
      <stop offset="58%" stop-color="#f0a12b"/>
      <stop offset="100%" stop-color="#3c6e71"/>
    </linearGradient>
    <filter id="softShadow" x="-20%" y="-20%" width="140%" height="140%">
      <feDropShadow dx="0" dy="18" stdDeviation="18" flood-color="#000000" flood-opacity="0.28"/>
    </filter>
    <clipPath id="round">
      <rect width="512" height="512" rx="128"/>
    </clipPath>
  </defs>
  <g clip-path="url(#round)">
    <rect width="512" height="512" fill="url(#bg)"/>
    <circle cx="420" cy="92" r="120" fill="#ffffff" opacity="0.08"/>
    <circle cx="88" cy="428" r="150" fill="#000000" opacity="0.16"/>
    <path d="M94 438c28-92 90-144 162-144s134 52 162 144" fill="#202840" filter="url(#softShadow)"/>
    <path d="M164 438c20-62 52-96 92-96s72 34 92 96" fill="#f0a12b" opacity="0.94"/>
    <circle cx="256" cy="220" r="104" fill="#fff8ec" filter="url(#softShadow)"/>
    <path d="M154 210c12-82 58-126 130-126 52 0 94 24 120 68-78-8-144 7-250 58z" fill="#121826"/>
    <path d="M148 226c54-62 112-91 174-88 42 3 72 20 95 48-52-14-103-1-154 30-44 27-82 34-115 10z" fill="#121826" opacity="0.86"/>
    <circle cx="220" cy="230" r="11" fill="#3c6e71"/>
    <circle cx="296" cy="230" r="11" fill="#3c6e71"/>
    <path d="M222 286c24 18 48 18 72 0" fill="none" stroke="#18202a" stroke-width="11" stroke-linecap="round"/>
    <path d="M182 188c34-28 74-42 120-42" fill="none" stroke="#ffffff" stroke-width="10" stroke-linecap="round" opacity="0.22"/>
    <rect x="352" y="352" width="74" height="74" rx="24" fill="#ffffff" opacity="0.16"/>
    <text x="389" y="399" text-anchor="middle" font-family="Inter, Arial, sans-serif" font-size="24" font-weight="800" fill="#ffffff">AN</text>
    <text x="256" y="480" text-anchor="middle" font-family="Inter, Arial, sans-serif" font-size="34" font-weight="900" fill="#ffffff" opacity="0.9">AB</text>
  </g>
</svg>
